<svg width="25" height="24" viewBox="0 0 25 24" fill="none" xmlns="http://www.w3.org/2000/svg">
<g clip-path="url(#clip0_410_4348)">
<path d="M21.0896 16.606V13.5C21.0896 13.1022 20.9316 12.7206 20.6503 12.4393C20.369 12.158 19.9874 12 19.5896 12H13.5896V9H15.0896C15.4873 8.99954 15.8686 8.84136 16.1498 8.56016C16.431 8.27895 16.5892 7.89768 16.5896 7.5V3C16.5892 2.60232 16.431 2.22105 16.1498 1.93984C15.8686 1.65864 15.4873 1.50046 15.0896 1.5H10.5896C10.1919 1.5004 9.8106 1.65856 9.52939 1.93978C9.24817 2.221 9.09 2.6023 9.08961 3V7.5C9.09 7.8977 9.24817 8.279 9.52939 8.56022C9.8106 8.84144 10.1919 8.9996 10.5896 9H12.0896V12H6.08961C5.69178 12 5.31025 12.158 5.02895 12.4393C4.74764 12.7206 4.58961 13.1022 4.58961 13.5V16.6066C3.88261 16.7891 3.26646 17.2232 2.85666 17.8276C2.44685 18.4319 2.27151 19.165 2.36352 19.8893C2.45552 20.6137 2.80855 21.2796 3.35643 21.7623C3.90431 22.245 4.60943 22.5113 5.33961 22.5113C6.06979 22.5113 6.7749 22.245 7.32278 21.7623C7.87066 21.2796 8.22369 20.6137 8.3157 19.8893C8.4077 19.165 8.23237 18.4319 7.82256 17.8276C7.41275 17.2232 6.7966 16.7891 6.08961 16.6066V13.5H12.0896V16.6065C11.3826 16.789 10.7665 17.2232 10.3567 17.8275C9.94685 18.4318 9.77151 19.1649 9.86352 19.8893C9.95552 20.6136 10.3086 21.2795 10.8564 21.7622C11.4043 22.2449 12.1094 22.5112 12.8396 22.5112C13.5698 22.5112 14.2749 22.2449 14.8228 21.7622C15.3707 21.2795 15.7237 20.6136 15.8157 19.8893C15.9077 19.1649 15.7324 18.4318 15.3226 17.8275C14.9128 17.2232 14.2966 16.789 13.5896 16.6065V13.5H19.5896V16.606C18.8826 16.7886 18.2665 17.2227 17.8567 17.8271C17.4468 18.4314 17.2715 19.1644 17.3635 19.8888C17.4555 20.6132 17.8086 21.2791 18.3564 21.7618C18.9043 22.2445 19.6094 22.5108 20.3396 22.5108C21.0698 22.5108 21.7749 22.2445 22.3228 21.7618C22.8707 21.2791 23.2237 20.6132 23.3157 19.8888C23.4077 19.1644 23.2324 18.4314 22.8226 17.8271C22.4128 17.2227 21.7966 16.7886 21.0896 16.606ZM10.5896 3H15.0896L15.0904 7.5H10.5896V3ZM6.83961 19.5C6.83961 19.7967 6.75163 20.0867 6.58681 20.3334C6.42199 20.58 6.18772 20.7723 5.91363 20.8858C5.63954 20.9994 5.33794 21.0291 5.04697 20.9712C4.756 20.9133 4.48873 20.7704 4.27895 20.5607C4.06917 20.3509 3.92631 20.0836 3.86843 19.7926C3.81055 19.5017 3.84026 19.2001 3.95379 18.926C4.06732 18.6519 4.25958 18.4176 4.50625 18.2528C4.75293 18.088 5.04293 18 5.33961 18C5.73729 18.0005 6.11856 18.1586 6.39976 18.4398C6.68097 18.7211 6.83915 19.1023 6.83961 19.5ZM14.3396 19.5C14.3396 19.7967 14.2516 20.0867 14.0868 20.3334C13.922 20.58 13.6877 20.7723 13.4136 20.8858C13.1395 20.9994 12.8379 21.0291 12.547 20.9712C12.256 20.9133 11.9887 20.7704 11.7789 20.5607C11.5692 20.3509 11.4263 20.0836 11.3684 19.7926C11.3106 19.5017 11.3403 19.2001 11.4538 18.926C11.5673 18.6519 11.7596 18.4176 12.0063 18.2528C12.2529 18.088 12.5429 18 12.8396 18C13.2373 18.0005 13.6185 18.1587 13.8997 18.4399C14.1809 18.7211 14.3391 19.1023 14.3396 19.5ZM20.3396 21C20.0429 21 19.7529 20.912 19.5063 20.7472C19.2596 20.5824 19.0673 20.3481 18.9538 20.074C18.8403 19.7999 18.8106 19.4983 18.8684 19.2074C18.9263 18.9164 19.0692 18.6491 19.2789 18.4393C19.4887 18.2296 19.756 18.0867 20.047 18.0288C20.3379 17.9709 20.6395 18.0006 20.9136 18.1142C21.1877 18.2277 21.422 18.42 21.5868 18.6666C21.7516 18.9133 21.8396 19.2033 21.8396 19.5C21.8392 19.8977 21.681 20.2789 21.3998 20.5602C21.1186 20.8414 20.7373 20.9995 20.3396 21Z" fill="#676767"/>
</g>
<defs>
<clipPath id="clip0_410_4348">
<rect width="24" height="24" fill="white" transform="translate(0.8396)"/>
</clipPath>
</defs>
</svg>
