<svg width="22" height="22" viewBox="0 0 22 22" fill="none" xmlns="http://www.w3.org/2000/svg">
<path d="M21.6844 4.47694C21.6844 2.00838 19.6761 2.90215e-05 17.2075 2.90215e-05H7.68793C7.36719 2.90215e-05 7.10718 0.260031 7.10718 0.580779C7.10718 0.901527 7.36719 1.16153 7.68793 1.16153H17.2075C19.0356 1.16153 20.5229 2.64883 20.5229 4.47694L20.523 17.3925C20.523 18.2781 20.1781 19.1107 19.5519 19.7369C18.9257 20.363 18.0931 20.7079 17.2076 20.7079L8.49805 20.7079C6.66991 20.7079 5.18264 19.2206 5.18264 17.3925V4.47691C5.18264 2.00835 3.17431 0 0.70575 0C0.385031 0 0.125 0.260002 0.125 0.58075C0.125 0.901498 0.385031 1.1615 0.70575 1.1615C2.53386 1.1615 4.02114 2.6488 4.02114 4.47691V17.3925C4.02114 19.8611 6.02949 21.8694 8.49805 21.8694L17.2076 21.8694C17.2076 21.8694 17.2076 21.8694 17.2076 21.8694C18.4034 21.8694 19.5277 21.4037 20.3732 20.5582C21.2188 19.7126 21.6845 18.5884 21.6845 17.3925L21.6844 4.47694Z" fill="url(#paint0_linear_131_397)"/>
<path d="M5.72699 1.16156H5.9216C6.24235 1.16156 6.50235 0.901559 6.50235 0.580811C6.50235 0.260063 6.24235 6.10352e-05 5.9216 6.10352e-05H5.72699C5.40627 6.10352e-05 5.14624 0.260063 5.14624 0.580811C5.14624 0.901559 5.40627 1.16156 5.72699 1.16156Z" fill="url(#paint1_linear_131_397)"/>
<path d="M10.3869 18.0518C10.4465 18.2555 10.6124 18.4105 10.8196 18.456L11.7016 18.6499L11.8955 19.5319C11.941 19.7391 12.096 19.905 12.2997 19.9645C12.3534 19.9803 12.4082 19.9879 12.4626 19.9879C12.6144 19.9879 12.7628 19.9283 12.8733 19.8178L15.2206 17.4706C15.255 17.472 15.2895 17.4732 15.3242 17.4732C15.359 17.4732 15.3935 17.472 15.4279 17.4706L17.7752 19.8178C17.8856 19.9283 18.034 19.9879 18.1859 19.9879C18.2403 19.9879 18.2951 19.9803 18.3488 19.9645C18.5525 19.905 18.7075 19.7391 18.753 19.5319L18.9469 18.6499L19.8289 18.456C20.0361 18.4105 20.202 18.2555 20.2616 18.0518C20.3212 17.8481 20.2649 17.6282 20.1148 17.4782L17.7676 15.1309C17.769 15.0964 17.7702 15.062 17.7702 15.0272C17.7702 13.6785 16.673 12.5813 15.3242 12.5813C13.9755 12.5813 12.8783 13.6785 12.8783 15.0272C12.8783 15.062 12.8795 15.0965 12.8809 15.1309L10.5337 17.4782C10.3836 17.6282 10.3273 17.8481 10.3869 18.0518ZM18.5434 17.5493L18.3348 17.5951C18.1136 17.6438 17.9409 17.8165 17.8922 18.0377L17.8464 18.2464L16.669 17.069C16.9457 16.8861 17.1831 16.6486 17.366 16.3719L18.5434 17.5493ZM15.3242 13.7427C16.0325 13.7427 16.6087 14.319 16.6087 15.0272C16.6087 15.7355 16.0325 16.3117 15.3242 16.3117C14.616 16.3117 14.0398 15.7354 14.0398 15.0272C14.0398 14.319 14.616 13.7427 15.3242 13.7427ZM13.2825 16.3719C13.4654 16.6486 13.7028 16.8861 13.9796 17.069L12.8021 18.2464L12.7563 18.0377C12.7076 17.8165 12.5349 17.6438 12.3137 17.5951L12.1051 17.5493L13.2825 16.3719Z" fill="url(#paint2_linear_131_397)"/>
<path d="M18.384 4.88342C18.7048 4.88342 18.9648 4.62342 18.9648 4.30267C18.9648 3.98193 18.7048 3.72192 18.384 3.72192H18.205C17.8843 3.72192 17.6243 3.98193 17.6243 4.30267C17.6243 4.62342 17.8843 4.88342 18.205 4.88342H18.384Z" fill="url(#paint3_linear_131_397)"/>
<path d="M7.36493 4.88342H16.4247C16.7454 4.88342 17.0054 4.62342 17.0054 4.30267C17.0054 3.98193 16.7454 3.72192 16.4247 3.72192H7.36493C7.04418 3.72192 6.78418 3.98193 6.78418 4.30267C6.78418 4.62342 7.04418 4.88342 7.36493 4.88342Z" fill="url(#paint4_linear_131_397)"/>
<path d="M7.36493 8.19351H7.54395C7.86469 8.19351 8.1247 7.93351 8.1247 7.61276C8.1247 7.29201 7.86469 7.03201 7.54395 7.03201H7.36493C7.04418 7.03201 6.78418 7.29201 6.78418 7.61276C6.78418 7.93351 7.04418 8.19351 7.36493 8.19351Z" fill="url(#paint5_linear_131_397)"/>
<path d="M8.74365 7.61276C8.74365 7.93351 9.00365 8.19351 9.3244 8.19351H18.3842C18.7049 8.19351 18.9649 7.93351 18.9649 7.61276C18.9649 7.29201 18.7049 7.03201 18.3842 7.03201H9.3244C9.00365 7.03201 8.74365 7.29201 8.74365 7.61276Z" fill="url(#paint6_linear_131_397)"/>
<path d="M18.205 11.5036H18.384C18.7048 11.5036 18.9648 11.2436 18.9648 10.9229C18.9648 10.6021 18.7048 10.3421 18.384 10.3421H18.205C17.8843 10.3421 17.6243 10.6021 17.6243 10.9229C17.6243 11.2436 17.8843 11.5036 18.205 11.5036Z" fill="url(#paint7_linear_131_397)"/>
<path d="M7.36493 11.5036H16.4247C16.7454 11.5036 17.0054 11.2436 17.0054 10.9229C17.0054 10.6021 16.7454 10.3421 16.4247 10.3421H7.36493C7.04418 10.3421 6.78418 10.6021 6.78418 10.9229C6.78418 11.2436 7.04418 11.5036 7.36493 11.5036Z" fill="url(#paint8_linear_131_397)"/>
<defs>
<linearGradient id="paint0_linear_131_397" x1="0.125" y1="10.9347" x2="21.6845" y2="10.9347" gradientUnits="userSpaceOnUse">
<stop stop-color="#FBBF61"/>
<stop offset="0.5" stop-color="#F89C1C"/>
<stop offset="1" stop-color="#E87C00" stop-opacity="0.8"/>
</linearGradient>
<linearGradient id="paint1_linear_131_397" x1="5.14624" y1="0.580811" x2="6.50235" y2="0.580811" gradientUnits="userSpaceOnUse">
<stop stop-color="#FBBF61"/>
<stop offset="0.5" stop-color="#F89C1C"/>
<stop offset="1" stop-color="#E87C00" stop-opacity="0.8"/>
</linearGradient>
<linearGradient id="paint2_linear_131_397" x1="10.3635" y1="16.2846" x2="20.285" y2="16.2846" gradientUnits="userSpaceOnUse">
<stop stop-color="#FBBF61"/>
<stop offset="0.5" stop-color="#F89C1C"/>
<stop offset="1" stop-color="#E87C00" stop-opacity="0.8"/>
</linearGradient>
<linearGradient id="paint3_linear_131_397" x1="17.6243" y1="4.30267" x2="18.9648" y2="4.30267" gradientUnits="userSpaceOnUse">
<stop stop-color="#FBBF61"/>
<stop offset="0.5" stop-color="#F89C1C"/>
<stop offset="1" stop-color="#E87C00" stop-opacity="0.8"/>
</linearGradient>
<linearGradient id="paint4_linear_131_397" x1="6.78418" y1="4.30267" x2="17.0054" y2="4.30267" gradientUnits="userSpaceOnUse">
<stop stop-color="#FBBF61"/>
<stop offset="0.5" stop-color="#F89C1C"/>
<stop offset="1" stop-color="#E87C00" stop-opacity="0.8"/>
</linearGradient>
<linearGradient id="paint5_linear_131_397" x1="6.78418" y1="7.61276" x2="8.1247" y2="7.61276" gradientUnits="userSpaceOnUse">
<stop stop-color="#FBBF61"/>
<stop offset="0.5" stop-color="#F89C1C"/>
<stop offset="1" stop-color="#E87C00" stop-opacity="0.8"/>
</linearGradient>
<linearGradient id="paint6_linear_131_397" x1="8.74365" y1="7.61276" x2="18.9649" y2="7.61276" gradientUnits="userSpaceOnUse">
<stop stop-color="#FBBF61"/>
<stop offset="0.5" stop-color="#F89C1C"/>
<stop offset="1" stop-color="#E87C00" stop-opacity="0.8"/>
</linearGradient>
<linearGradient id="paint7_linear_131_397" x1="17.6243" y1="10.9229" x2="18.9648" y2="10.9229" gradientUnits="userSpaceOnUse">
<stop stop-color="#FBBF61"/>
<stop offset="0.5" stop-color="#F89C1C"/>
<stop offset="1" stop-color="#E87C00" stop-opacity="0.8"/>
</linearGradient>
<linearGradient id="paint8_linear_131_397" x1="6.78418" y1="10.9229" x2="17.0054" y2="10.9229" gradientUnits="userSpaceOnUse">
<stop stop-color="#FBBF61"/>
<stop offset="0.5" stop-color="#F89C1C"/>
<stop offset="1" stop-color="#E87C00" stop-opacity="0.8"/>
</linearGradient>
</defs>
</svg>
