<svg width="16" height="16" viewBox="0 0 16 16" fill="none" xmlns="http://www.w3.org/2000/svg">
<g clip-path="url(#clip0_609_4358)">
<path fill-rule="evenodd" clip-rule="evenodd" d="M7.99998 1.8335C4.59423 1.8335 1.83331 4.59441 1.83331 8.00016C1.83331 11.4059 4.59423 14.1668 7.99998 14.1668C11.4057 14.1668 14.1666 11.4059 14.1666 8.00016C14.1666 4.59441 11.4057 1.8335 7.99998 1.8335ZM0.833313 8.00016C0.833313 4.04212 4.04194 0.833496 7.99998 0.833496C11.958 0.833496 15.1666 4.04212 15.1666 8.00016C15.1666 11.9582 11.958 15.1668 7.99998 15.1668C4.04194 15.1668 0.833313 11.9582 0.833313 8.00016ZM7.99998 4.8335C8.27611 4.8335 8.49998 5.05736 8.49998 5.3335V7.79303L10.0202 9.3133C10.2154 9.50856 10.2154 9.8251 10.0202 10.0204C9.82491 10.2156 9.50838 10.2156 9.31311 10.0204L7.64645 8.3537C7.55265 8.25996 7.49998 8.13276 7.49998 8.00016V5.3335C7.49998 5.05736 7.72385 4.8335 7.99998 4.8335Z" fill="white"/>
</g>
<defs>
<clipPath id="clip0_609_4358">
<rect width="16" height="16" fill="white"/>
</clipPath>
</defs>
</svg>
