<svg width="25" height="24" viewBox="0 0 25 24" fill="none" xmlns="http://www.w3.org/2000/svg">
<path d="M12.125 2.25C10.1966 2.25 8.31157 2.82183 6.70819 3.89317C5.10482 4.96451 3.85513 6.48726 3.11718 8.26884C2.37922 10.0504 2.18614 12.0108 2.56235 13.9021C2.93855 15.7934 3.86715 17.5307 5.23071 18.8943C6.59428 20.2579 8.33156 21.1865 10.2229 21.5627C12.1142 21.9389 14.0746 21.7458 15.8562 21.0078C17.6377 20.2699 19.1605 19.0202 20.2318 17.4168C21.3032 15.8134 21.875 13.9284 21.875 12C21.8723 9.41498 20.8442 6.93661 19.0163 5.10872C17.1884 3.28084 14.71 2.25273 12.125 2.25ZM9.65282 15.75H14.5972C14.0938 17.4694 13.25 19.0191 12.125 20.2397C11 19.0191 10.1563 17.4694 9.65282 15.75ZM9.3125 14.25C9.06376 12.7603 9.06376 11.2397 9.3125 9.75H14.9375C15.1863 11.2397 15.1863 12.7603 14.9375 14.25H9.3125ZM3.875 12C3.87435 11.2392 3.97942 10.4819 4.18719 9.75H7.79282C7.56907 11.2417 7.56907 12.7583 7.79282 14.25H4.18719C3.97942 13.5181 3.87435 12.7608 3.875 12ZM14.5972 8.25H9.65282C10.1563 6.53062 11 4.98094 12.125 3.76031C13.25 4.98094 14.0938 6.53062 14.5972 8.25ZM16.4572 9.75H20.0628C20.4791 11.2211 20.4791 12.7789 20.0628 14.25H16.4572C16.6809 12.7583 16.6809 11.2417 16.4572 9.75ZM19.4722 8.25H16.1506C15.7679 6.74392 15.1251 5.31623 14.2513 4.03125C15.3677 4.33127 16.4089 4.86162 17.3081 5.58818C18.2073 6.31475 18.9444 7.22146 19.4722 8.25ZM9.99875 4.03125C9.1249 5.31623 8.48213 6.74392 8.09938 8.25H4.77782C5.30556 7.22146 6.04272 6.31475 6.94189 5.58818C7.84106 4.86162 8.88233 4.33127 9.99875 4.03125ZM4.77782 15.75H8.09938C8.48213 17.2561 9.1249 18.6838 9.99875 19.9688C8.88233 19.6687 7.84106 19.1384 6.94189 18.4118C6.04272 17.6852 5.30556 16.7785 4.77782 15.75ZM14.2513 19.9688C15.1251 18.6838 15.7679 17.2561 16.1506 15.75H19.4722C18.9444 16.7785 18.2073 17.6852 17.3081 18.4118C16.4089 19.1384 15.3677 19.6687 14.2513 19.9688Z" fill="url(#paint0_linear_18_1485)"/>
<defs>
<linearGradient id="paint0_linear_18_1485" x1="2.375" y1="12" x2="21.875" y2="12" gradientUnits="userSpaceOnUse">
<stop stop-color="#FBBF61"/>
<stop offset="0.5" stop-color="#F89C1C"/>
<stop offset="1" stop-color="#E87C00" stop-opacity="0.8"/>
</linearGradient>
</defs>
</svg>
