<svg width="24" height="24" viewBox="0 0 24 24" fill="none" xmlns="http://www.w3.org/2000/svg">
<path d="M21.8943 13.3341C21.7981 13.2377 21.6774 13.1693 21.5453 13.1362C21.4132 13.1032 21.2745 13.1068 21.1443 13.1466C19.7142 13.5789 18.1936 13.6152 16.7445 13.2515C15.2955 12.8878 13.9722 12.1377 12.9158 11.0813C11.8594 10.0249 11.1093 8.70164 10.7456 7.25257C10.3819 5.8035 10.4182 4.28291 10.8505 2.85282C10.8906 2.72251 10.8945 2.58373 10.8616 2.4514C10.8288 2.31906 10.7605 2.19819 10.6641 2.10178C10.5676 2.00537 10.4468 1.93706 10.3144 1.90421C10.1821 1.87135 10.0433 1.8752 9.91302 1.91532C7.93586 2.52099 6.20009 3.73482 4.95271 5.38407C3.86185 6.83237 3.19645 8.55617 3.03127 10.3618C2.86609 12.1674 3.20768 13.9833 4.01765 15.6055C4.82763 17.2277 6.0739 18.5919 7.61646 19.5449C9.15901 20.4978 10.9367 21.0017 12.7499 21C14.8652 21.0065 16.9243 20.3189 18.6111 19.0425C20.2604 17.7951 21.4742 16.0594 22.0799 14.0822C22.1196 13.9524 22.1232 13.8142 22.0905 13.6825C22.0579 13.5507 21.99 13.4303 21.8943 13.3341ZM17.7093 17.8444C16.1207 19.0409 14.1534 19.6233 12.1695 19.4844C10.1857 19.3454 8.31871 18.4946 6.9124 17.0884C5.50609 15.6822 4.65507 13.8153 4.51599 11.8314C4.37692 9.84756 4.95916 7.88022 6.15552 6.29157C6.93496 5.26225 7.94265 4.42787 9.09927 3.85407C9.03338 4.31647 9.00018 4.78294 8.9999 5.25001C9.00263 7.83503 10.0307 10.3134 11.8586 12.1413C13.6865 13.9692 16.1649 14.9973 18.7499 15C19.2179 14.9999 19.6853 14.9667 20.1486 14.9006C19.5743 16.0575 18.7393 17.0652 17.7093 17.8444Z" fill="url(#paint0_linear_18_1434)"/>
<defs>
<linearGradient id="paint0_linear_18_1434" x1="2.99072" y1="11.4411" x2="22.1126" y2="11.4411" gradientUnits="userSpaceOnUse">
<stop stop-color="#FBBF61"/>
<stop offset="0.5" stop-color="#F89C1C"/>
<stop offset="1" stop-color="#E87C00" stop-opacity="0.8"/>
</linearGradient>
</defs>
</svg>
