<svg width="80" height="102" viewBox="0 0 80 102" fill="none" xmlns="http://www.w3.org/2000/svg">
<path d="M47.3482 11.335C60.7632 14.6266 70.7156 26.7328 70.7156 41.1622V70.8757L78.8701 85.9598H1.12994L9.28446 70.8757V41.1625C9.28446 26.7331 19.2337 14.6269 32.6484 11.3353C34.1074 8.80808 36.0571 5.42942 37.3224 3.24233C38.7949 0.691359 41.2052 0.691359 42.6774 3.24233C43.9394 5.4291 45.8891 8.80808 47.3482 11.335Z" stroke="#4E4E4E" stroke-width="2.24219" stroke-miterlimit="10" stroke-linecap="round" stroke-linejoin="round"/>
<path d="M25.6576 85.9614C25.6576 93.8824 32.0792 100.304 39.9999 100.304C47.9206 100.304 54.3422 93.8821 54.3422 85.9614" stroke="#4E4E4E" stroke-width="2.24219" stroke-miterlimit="10" stroke-linecap="round" stroke-linejoin="round"/>
<path d="M45.5042 21.9302C54.1328 24.3335 60.4615 32.249 60.4615 41.6429V57.9234" stroke="#4E4E4E" stroke-width="2.24219" stroke-miterlimit="10" stroke-linecap="round" stroke-linejoin="round"/>
</svg>
