<svg width="25" height="24" viewBox="0 0 25 24" fill="none" xmlns="http://www.w3.org/2000/svg">
<path d="M2.73926 12C2.73926 8.22876 2.73926 6.34315 3.91083 5.17157C5.08241 4 6.96802 4 10.7393 4H14.7393C18.5105 4 20.3962 4 21.5677 5.17157C22.7393 6.34315 22.7393 8.22876 22.7393 12C22.7393 15.7712 22.7393 17.6569 21.5677 18.8284C20.3962 20 18.5105 20 14.7393 20H10.7393C6.96802 20 5.08241 20 3.91083 18.8284C2.73926 17.6569 2.73926 15.7712 2.73926 12Z" stroke="url(#paint0_linear_671_6559)" stroke-width="1.5"/>
<path d="M12.7394 10V14M11.007 11L14.4711 13M14.4709 11L11.0068 13" stroke="url(#paint1_linear_671_6559)" stroke-width="1.5" stroke-linecap="round"/>
<path d="M7.47192 10V14M5.73949 11L9.2036 13M9.20336 11L5.73926 13" stroke="url(#paint2_linear_671_6559)" stroke-width="1.5" stroke-linecap="round"/>
<path d="M18.0071 10V14M16.2746 11L19.7387 13M19.7385 11L16.2744 13" stroke="url(#paint3_linear_671_6559)" stroke-width="1.5" stroke-linecap="round"/>
<defs>
<linearGradient id="paint0_linear_671_6559" x1="2.73926" y1="12" x2="22.7393" y2="12" gradientUnits="userSpaceOnUse">
<stop stop-color="#FBBF61"/>
<stop offset="0.5" stop-color="#F89C1C"/>
<stop offset="1" stop-color="#E87C00" stop-opacity="0.8"/>
</linearGradient>
<linearGradient id="paint1_linear_671_6559" x1="11.0068" y1="12" x2="14.4711" y2="12" gradientUnits="userSpaceOnUse">
<stop stop-color="#FBBF61"/>
<stop offset="0.5" stop-color="#F89C1C"/>
<stop offset="1" stop-color="#E87C00" stop-opacity="0.8"/>
</linearGradient>
<linearGradient id="paint2_linear_671_6559" x1="5.73926" y1="12" x2="9.2036" y2="12" gradientUnits="userSpaceOnUse">
<stop stop-color="#FBBF61"/>
<stop offset="0.5" stop-color="#F89C1C"/>
<stop offset="1" stop-color="#E87C00" stop-opacity="0.8"/>
</linearGradient>
<linearGradient id="paint3_linear_671_6559" x1="16.2744" y1="12" x2="19.7387" y2="12" gradientUnits="userSpaceOnUse">
<stop stop-color="#FBBF61"/>
<stop offset="0.5" stop-color="#F89C1C"/>
<stop offset="1" stop-color="#E87C00" stop-opacity="0.8"/>
</linearGradient>
</defs>
</svg>
