<svg width="20" height="20" viewBox="0 0 20 20" fill="none" xmlns="http://www.w3.org/2000/svg">
<path fill-rule="evenodd" clip-rule="evenodd" d="M14.0831 5.99999C14.0831 3.79399 12.2518 1.99999 10 1.99999C7.74816 1.99999 5.91688 3.79399 5.91688 5.99999C5.91688 8.206 7.74816 9.99999 10 9.99999C12.2518 9.99999 14.0831 8.206 14.0831 5.99999ZM17.9458 20H16.1247C15.5612 20 15.1039 19.552 15.1039 19C15.1039 18.448 15.5612 18 16.1247 18H16.5626C17.269 18 17.7906 17.303 17.5232 16.662C16.287 13.698 13.3839 12 10 12C6.61612 12 3.71301 13.698 2.47685 16.662C2.2094 17.303 2.73104 18 3.43742 18H3.87531C4.43878 18 4.89609 18.448 4.89609 19C4.89609 19.552 4.43878 20 3.87531 20H2.05424C0.778266 20 -0.226182 18.857 0.0443249 17.636C0.787452 14.277 3.1077 11.798 6.16392 10.673C4.76953 9.57397 3.87531 7.89 3.87531 5.99999C3.87531 2.44899 7.02341 -0.381023 10.7339 0.0419769C13.4227 0.347977 15.65 2.44693 16.0532 5.06993C16.4003 7.33095 15.4561 9.39597 13.8361 10.673C16.8923 11.798 19.2125 14.277 19.9557 17.636C20.2262 18.857 19.2217 20 17.9458 20ZM13.0623 19C13.0623 19.552 12.605 20 12.0416 20H7.95844C7.39497 20 6.93766 19.552 6.93766 19C6.93766 18.448 7.39497 18 7.95844 18H12.0416C12.605 18 13.0623 18.448 13.0623 19Z" fill="url(#paint0_linear_611_4808)"/>
<defs>
<linearGradient id="paint0_linear_611_4808" x1="0" y1="10" x2="20" y2="10" gradientUnits="userSpaceOnUse">
<stop stop-color="#FBBF61"/>
<stop offset="0.5" stop-color="#F89C1C"/>
<stop offset="1" stop-color="#E87C00" stop-opacity="0.8"/>
</linearGradient>
</defs>
</svg>
