<svg width="25" height="25" viewBox="0 0 25 25" fill="none" xmlns="http://www.w3.org/2000/svg">
<path d="M12.6601 11.151C12.5601 11.141 12.4401 11.141 12.3301 11.151C9.95006 11.071 8.06006 9.12101 8.06006 6.72101C8.06006 4.27101 10.0401 2.28101 12.5001 2.28101C14.9501 2.28101 16.9401 4.27101 16.9401 6.72101C16.9301 9.12101 15.0401 11.071 12.6601 11.151Z" stroke="#676767" stroke-width="1.5" stroke-linecap="round" stroke-linejoin="round"/>
<path d="M7.65997 14.841C5.23997 16.461 5.23997 19.101 7.65997 20.711C10.41 22.551 14.92 22.551 17.67 20.711C20.09 19.091 20.09 16.451 17.67 14.841C14.93 13.011 10.42 13.011 7.65997 14.841Z" stroke="#676767" stroke-width="1.5" stroke-linecap="round" stroke-linejoin="round"/>
</svg>
