<svg width="25" height="25" viewBox="0 0 25 25" fill="none" xmlns="http://www.w3.org/2000/svg">
<path d="M2.57 5.38089C3.37 1.92089 8.58 1.92089 9.37 5.38089C9.84 7.41089 8.55 9.13089 7.43 10.2009C6.61 10.9809 5.32 10.9709 4.5 10.2009C3.39 9.13089 2.1 7.41089 2.57 5.38089Z" stroke="#676767" stroke-width="1.5"/>
<path d="M15.57 17.3809C16.37 13.9209 21.61 13.9209 22.41 17.3809C22.88 19.4109 21.59 21.1309 20.46 22.2009C19.64 22.9809 18.34 22.9709 17.52 22.2009C16.39 21.1309 15.1 19.4109 15.57 17.3809Z" stroke="#676767" stroke-width="1.5"/>
<path d="M12.5 5.78101H15.18C17.03 5.78101 17.89 8.07101 16.5 9.29101L8.51 16.281C7.12 17.491 7.98 19.781 9.82 19.781H12.5" stroke="#676767" stroke-width="1.5" stroke-linecap="round" stroke-linejoin="round"/>
<path d="M5.98622 6.28101H5.99777" stroke="#676767" stroke-width="2" stroke-linecap="round" stroke-linejoin="round"/>
<path d="M18.9862 18.281H18.9978" stroke="#676767" stroke-width="2" stroke-linecap="round" stroke-linejoin="round"/>
</svg>
