<svg width="24" height="24" viewBox="0 0 24 24" fill="none" xmlns="http://www.w3.org/2000/svg">
<path d="M14.9389 1.52797C14.5561 1.68608 14.3739 2.12461 14.532 2.50747C14.6901 2.89032 15.1286 3.07251 15.5115 2.9144L14.9389 1.52797ZM7.73705 15.1613C7.44372 15.4537 7.443 15.9286 7.73546 16.222C8.02791 16.5153 8.50277 16.516 8.79611 16.2235L7.73705 15.1613ZM10.8561 14.1697C11.1495 13.8772 11.1502 13.4024 10.8577 13.109C10.5653 12.8157 10.0904 12.815 9.79708 13.1074L10.8561 14.1697ZM13.0296 5.15656C13.323 4.86411 13.3237 4.38923 13.0312 4.0959C12.7388 3.80257 12.2639 3.80185 11.9706 4.09431L13.0296 5.15656ZM19.764 10.0166L13.9171 15.8459L14.9762 16.9082L20.8231 11.0789L19.764 10.0166ZM9.48279 15.8459L8.10944 14.4767L7.05037 15.5389L8.42373 16.9082L9.48279 15.8459ZM17.5468 2.75009H18.1157V1.25009H17.5468V2.75009ZM21.2501 5.87286V6.44002H22.7501V5.87286H21.2501ZM18.1157 2.75009C19.0524 2.75009 19.6797 2.75167 20.1472 2.81434C20.5933 2.87414 20.7799 2.97697 20.9017 3.09837L21.9608 2.03612C21.5137 1.59037 20.9581 1.40962 20.3465 1.32763C19.7562 1.24851 19.0101 1.25009 18.1157 1.25009V2.75009ZM22.7501 5.87286C22.7501 4.98131 22.7517 4.23697 22.6723 3.64789C22.5899 3.03701 22.4082 2.48218 21.9608 2.03612L20.9017 3.09837C21.0232 3.21946 21.1259 3.40463 21.1857 3.84835C21.2485 4.31389 21.2501 4.93878 21.2501 5.87286H22.7501ZM8.10944 14.4767C7.44701 13.8162 7.00477 13.3731 6.71885 12.9995C6.44611 12.6431 6.3877 12.4398 6.3877 12.2693H4.8877C4.8877 12.901 5.15298 13.4215 5.52764 13.9111C5.88913 14.3834 6.418 14.9085 7.05037 15.5389L8.10944 14.4767ZM8.42373 16.9082C9.05613 17.5387 9.58271 18.0659 10.0564 18.4263C10.5475 18.7998 11.0685 19.0634 11.7 19.0634V17.5634C11.5269 17.5634 11.322 17.5043 10.9646 17.2324C10.5897 16.9473 10.1452 16.5063 9.48279 15.8459L8.42373 16.9082ZM20.8231 11.0789C21.6216 10.2827 22.1785 9.74622 22.4709 9.04242L21.0857 8.46692C20.9346 8.83068 20.6495 9.13374 19.764 10.0166L20.8231 11.0789ZM21.2501 6.44002C21.2501 7.68861 21.2368 8.10341 21.0857 8.46692L22.4709 9.04242C22.7634 8.33837 22.7501 7.56593 22.7501 6.44002H21.2501ZM17.5468 1.25009C16.417 1.25009 15.6438 1.23688 14.9389 1.52797L15.5115 2.9144C15.8774 2.7633 16.2949 2.75009 17.5468 2.75009V1.25009ZM8.79611 16.2235L10.8561 14.1697L9.79708 13.1074L7.73705 15.1613L8.79611 16.2235ZM13.9171 15.8459C13.4058 16.3557 13.0211 16.7387 12.6905 17.0242C12.3587 17.3107 12.1351 17.4505 11.9597 17.5151L12.4781 18.9227C12.906 18.7651 13.2919 18.4868 13.6709 18.1594C14.0513 17.8309 14.4788 17.4041 14.9762 16.9082L13.9171 15.8459ZM11.9597 17.5151C11.8673 17.5492 11.7848 17.5634 11.7 17.5634V19.0634C11.9707 19.0634 12.2283 19.0147 12.4781 18.9227L11.9597 17.5151ZM7.05037 8.99974C6.5649 9.48376 6.14575 9.90112 5.82033 10.2725C5.49625 10.6424 5.21908 11.0168 5.05382 11.4278L6.44551 11.9874C6.51649 11.8109 6.66249 11.5875 6.94849 11.2611C7.23315 10.9362 7.611 10.5589 8.10944 10.062L7.05037 8.99974ZM5.05382 11.4278C4.94592 11.6961 4.8877 11.9744 4.8877 12.2693H6.3877C6.3877 12.1792 6.40412 12.0903 6.44551 11.9874L5.05382 11.4278ZM8.10944 10.062L13.0296 5.15656L11.9706 4.09431L7.05037 8.99974L8.10944 10.062Z" fill="url(#paint0_linear_611_4817)"/>
<path d="M5.57326 11.5317L6.10359 11.0013L6.1028 11.0005L5.57326 11.5317ZM9.91951 7.42238C10.2678 7.64656 10.7319 7.54593 10.956 7.19762C11.1802 6.84932 11.0796 6.38523 10.7313 6.16105L9.91951 7.42238ZM2.70059 10.1692C3.08358 10.327 3.52196 10.1444 3.67975 9.76147C3.83754 9.37849 3.65498 8.9401 3.272 8.78231L2.70059 10.1692ZM5.21917 12.2382C5.51206 12.5311 5.98694 12.5311 6.27983 12.2382C6.57272 11.9453 6.57272 11.4705 6.27983 11.1776L5.21917 12.2382ZM5.62243 10.5216C5.32909 10.2291 4.85422 10.2299 4.56177 10.5232C4.26932 10.8165 4.27003 11.2914 4.56336 11.5839L5.62243 10.5216ZM10.7313 6.16105L10.1021 5.75608L9.2903 7.01741L9.91951 7.42238L10.7313 6.16105ZM10.1021 5.75608C9.48069 5.35612 8.97913 5.03269 8.54745 4.80008C8.10634 4.56239 7.69313 4.39381 7.23623 4.32629L7.01694 5.81017C7.23634 5.84259 7.47683 5.92708 7.83591 6.12057C8.20441 6.31914 8.64951 6.60499 9.2903 7.01741L10.1021 5.75608ZM2.75461 8.5548C3.31767 7.99344 3.92161 7.39152 4.46435 6.89641C4.73552 6.64903 4.98246 6.43659 5.19428 6.27333C5.41772 6.10111 5.55945 6.0173 5.62677 5.98937L5.05192 4.60389C4.79468 4.71063 4.52488 4.89542 4.27857 5.08527C4.02065 5.28407 3.73965 5.52713 3.45342 5.78824C2.88137 6.3101 2.25274 6.93704 1.69556 7.49253L2.75461 8.5548ZM7.23623 4.32629C6.50155 4.21771 5.74614 4.31585 5.05192 4.60389L5.62677 5.98937C6.07744 5.80238 6.55879 5.74246 7.01694 5.81017L7.23623 4.32629ZM2.20815 9.97368L2.58679 10.1237L3.13936 8.7292L2.76072 8.57917L2.20815 9.97368ZM2.58679 10.1237C2.65041 10.1489 2.6759 10.159 2.70059 10.1692L3.272 8.78231C3.23577 8.76738 3.19941 8.75299 3.13936 8.7292L2.58679 10.1237ZM1.69556 7.49253C0.921762 8.26398 1.1946 9.57206 2.20815 9.97368L2.76072 8.57917C2.75627 8.57741 2.75446 8.57607 2.75418 8.57587C2.75431 8.57604 2.7538 8.57559 2.75418 8.57587C2.75371 8.57531 2.75139 8.57224 2.75045 8.5677C2.74951 8.56317 2.75013 8.56041 2.75022 8.56007C2.7501 8.56028 2.75023 8.56004 2.75022 8.56007C2.75028 8.55997 2.75137 8.55802 2.75461 8.5548L1.69556 7.49253ZM5.04293 12.062L5.21917 12.2382L6.27983 11.1776L6.10359 11.0013L5.04293 12.062ZM4.56336 11.5839L5.04373 12.0628L6.1028 11.0005L5.62243 10.5216L4.56336 11.5839Z" fill="url(#paint1_linear_611_4817)"/>
<path d="M12.4995 18.5002L11.9691 19.0306C11.9807 19.0422 11.9927 19.0534 12.005 19.0642L12.4995 18.5002ZM17.8233 13.2321C17.5982 12.8844 17.1338 12.7851 16.7861 13.0102C16.4384 13.2353 16.3391 13.6997 16.5642 14.0474L17.8233 13.2321ZM15.4452 21.2972C15.2918 20.9124 14.8555 20.7248 14.4708 20.8782C14.086 21.0316 13.8984 21.4679 14.0518 21.8526L15.4452 21.2972ZM12.5279 19.5226C12.8394 19.7957 13.3132 19.7646 13.5863 19.4531C13.8594 19.1417 13.8282 18.6678 13.5168 18.3948L12.5279 19.5226ZM12.7486 17.6887C12.4557 17.3958 11.9808 17.3958 11.6879 17.6887C11.395 17.9816 11.395 18.4565 11.6879 18.7494L12.7486 17.6887ZM16.5642 14.0474L16.9704 14.6747L18.2295 13.8594L17.8233 13.2321L16.5642 14.0474ZM15.4286 21.1847L15.3445 21.2685L16.4036 22.3307L16.4877 22.2469L15.4286 21.1847ZM16.9704 14.6747C17.3841 15.3136 17.6707 15.7573 17.8698 16.1245C18.0638 16.4824 18.1482 16.7215 18.1806 16.9393L19.6643 16.7187C19.5964 16.2622 19.427 15.8496 19.1885 15.4097C18.9551 14.9791 18.6306 14.479 18.2295 13.8594L16.9704 14.6747ZM16.4877 22.2469C17.0448 21.6914 17.6736 21.0646 18.1971 20.4943C18.459 20.2089 18.7028 19.9288 18.9022 19.6716C19.0926 19.426 19.2782 19.1568 19.3855 18.8998L18.0012 18.322C17.9734 18.3885 17.8896 18.5296 17.7168 18.7524C17.5531 18.9635 17.3401 19.2097 17.0919 19.4801C16.5953 20.0212 15.9916 20.6233 15.4286 21.1847L16.4877 22.2469ZM18.1806 16.9393C18.2483 17.3948 18.1884 17.8735 18.0012 18.322L19.3855 18.8998C19.6747 18.2068 19.7734 17.4525 19.6643 16.7187L18.1806 16.9393ZM13.5168 18.3948L12.9939 17.9363L12.005 19.0642L12.5279 19.5226L13.5168 18.3948ZM15.3445 21.2685C15.3509 21.2622 15.3614 21.2557 15.3729 21.2524C15.3827 21.2496 15.3901 21.25 15.3953 21.251C15.4005 21.252 15.4091 21.2549 15.4193 21.2631C15.4311 21.2725 15.4405 21.2854 15.4452 21.2972L14.0518 21.8526C14.4357 22.8157 15.6837 23.0485 16.4036 22.3307L15.3445 21.2685ZM13.0298 17.9699L12.7486 17.6887L11.6879 18.7494L11.9691 19.0306L13.0298 17.9699Z" fill="url(#paint2_linear_611_4817)"/>
<path d="M13.917 10.6287C14.2103 10.9212 14.6852 10.9205 14.9777 10.6271C15.2701 10.3338 15.2694 9.85894 14.9761 9.56648L13.917 10.6287ZM16.6637 9.56648C16.3704 9.85894 16.3697 10.3338 16.6621 10.6271C16.9546 10.9205 17.4294 10.9212 17.7228 10.6287L16.6637 9.56648ZM17.7228 6.82802C16.6716 5.77998 14.9682 5.77998 13.917 6.82802L14.9761 7.89027C15.4419 7.4259 16.1979 7.4259 16.6637 7.89027L17.7228 6.82802ZM13.917 6.82802C12.8646 7.8773 12.8646 9.57946 13.917 10.6287L14.9761 9.56648C14.5116 9.10335 14.5116 8.3534 14.9761 7.89027L13.917 6.82802ZM17.7228 10.6287C18.7752 9.57946 18.7752 7.8773 17.7228 6.82802L16.6637 7.89027C17.1282 8.3534 17.1282 9.10335 16.6637 9.56648L17.7228 10.6287Z" fill="url(#paint3_linear_611_4817)"/>
<defs>
<linearGradient id="paint0_linear_611_4817" x1="4.8877" y1="10.1567" x2="22.7502" y2="10.1567" gradientUnits="userSpaceOnUse">
<stop stop-color="#FBBF61"/>
<stop offset="0.5" stop-color="#F89C1C"/>
<stop offset="1" stop-color="#E87C00" stop-opacity="0.8"/>
</linearGradient>
<linearGradient id="paint1_linear_611_4817" x1="1.24963" y1="8.37054" x2="11.0755" y2="8.37054" gradientUnits="userSpaceOnUse">
<stop stop-color="#FBBF61"/>
<stop offset="0.5" stop-color="#F89C1C"/>
<stop offset="1" stop-color="#E87C00" stop-opacity="0.8"/>
</linearGradient>
<linearGradient id="paint2_linear_611_4817" x1="11.4683" y1="17.8198" x2="19.7076" y2="17.8198" gradientUnits="userSpaceOnUse">
<stop stop-color="#FBBF61"/>
<stop offset="0.5" stop-color="#F89C1C"/>
<stop offset="1" stop-color="#E87C00" stop-opacity="0.8"/>
</linearGradient>
<linearGradient id="paint3_linear_611_4817" x1="13.1277" y1="8.4448" x2="18.5121" y2="8.4448" gradientUnits="userSpaceOnUse">
<stop stop-color="#FBBF61"/>
<stop offset="0.5" stop-color="#F89C1C"/>
<stop offset="1" stop-color="#E87C00" stop-opacity="0.8"/>
</linearGradient>
</defs>
</svg>
