<svg width="25" height="24" viewBox="0 0 25 24" fill="none" xmlns="http://www.w3.org/2000/svg">
<path d="M12.7385 9.41351C11.3125 9.41351 10.1523 10.5736 10.1523 11.9996C10.1523 13.4256 11.3125 14.5857 12.7385 14.5857C14.1645 14.5857 15.3246 13.4256 15.3246 11.9996C15.3246 10.5736 14.1644 9.41351 12.7385 9.41351ZM12.7385 13.3695C11.9831 13.3695 11.3685 12.755 11.3685 11.9996C11.3685 11.2442 11.9831 10.6297 12.7385 10.6297C13.4939 10.6297 14.1084 11.2442 14.1084 11.9996C14.1084 12.7549 13.4938 13.3695 12.7385 13.3695Z" fill="url(#paint0_linear_708_3334)"/>
<path d="M19.4423 10.131C19.3293 10.2442 19.2642 10.401 19.2642 10.5609C19.2642 10.7209 19.3293 10.8777 19.4423 10.9909C19.556 11.1046 19.7123 11.169 19.8723 11.169C20.0322 11.169 20.1891 11.1046 20.3022 10.9909C20.4159 10.8777 20.4804 10.7209 20.4804 10.5609C20.4804 10.401 20.4159 10.2447 20.3022 10.131C20.1891 10.0179 20.0328 9.95282 19.8723 9.95282C19.7123 9.95282 19.5554 10.0179 19.4423 10.131Z" fill="url(#paint1_linear_708_3334)"/>
<path d="M14.1378 18.6278C13.9779 18.6278 13.8211 18.6929 13.7079 18.806C13.5948 18.9191 13.5298 19.076 13.5298 19.2359C13.5298 19.3958 13.5949 19.5527 13.7079 19.6658C13.8216 19.7795 13.9779 19.844 14.1378 19.844C14.2978 19.844 14.4546 19.7796 14.5678 19.6658C14.6814 19.5527 14.746 19.3958 14.746 19.2359C14.746 19.076 14.6815 18.9197 14.5678 18.806C14.4546 18.6929 14.2983 18.6278 14.1378 18.6278Z" fill="url(#paint2_linear_708_3334)"/>
<path d="M16.5316 8.20692C15.6598 7.33511 14.7464 6.54584 13.8223 5.85966C14.5666 5.4056 15.3044 5.03233 16.0176 4.75324C17.8389 4.04064 19.2885 4.03701 19.995 4.74349C20.7142 5.46269 20.6983 6.94347 19.9515 8.80619C19.8264 9.11788 19.9778 9.47194 20.2895 9.59691C20.6013 9.72194 20.9553 9.57067 21.0803 9.25885C22.0308 6.88832 21.9507 4.9793 20.855 3.88349C19.7755 2.80404 17.9002 2.71053 15.5744 3.62065C14.6528 3.98131 13.6964 4.48446 12.7389 5.10597C11.7815 4.48446 10.8251 3.98131 9.90337 3.62065C7.5778 2.71071 5.7024 2.80398 4.62283 3.88355C3.54326 4.96306 3.44992 6.83844 4.35998 9.16406C4.72065 10.0858 5.2238 11.0422 5.84531 11.9996C5.22374 12.957 4.72059 13.9134 4.35992 14.8351C3.44986 17.1608 3.5432 19.0361 4.62277 20.1157C5.21089 20.7038 6.03489 20.9991 7.03955 20.9991C7.87901 20.9991 8.8447 20.7928 9.90337 20.3785C12.0665 19.5321 14.4205 17.9033 16.5315 15.7923C17.4009 14.9229 18.1874 14.0142 18.8784 13.0823C19.3327 13.8268 19.7061 14.5649 19.9853 15.2783C20.698 17.0996 20.7015 18.5493 19.995 19.2557C19.276 19.9748 17.7951 19.959 15.9323 19.2121C15.6206 19.0872 15.2666 19.2386 15.1416 19.5502C15.0166 19.862 15.168 20.216 15.4797 20.341C16.5767 20.7808 17.5746 20.9999 18.4391 20.9999C19.4427 20.9998 20.2664 20.7043 20.8551 20.1156C21.9346 19.0361 22.0279 17.1607 21.118 14.8351C20.2713 12.6719 18.6426 10.3179 16.5316 8.20692ZM5.49253 8.72085C4.77986 6.89965 4.77629 5.44997 5.48277 4.74355C6.18913 4.03707 7.63895 4.04064 9.46009 4.75324C10.1733 5.03233 10.9112 5.4056 11.6554 5.85966C10.7313 6.54584 9.81803 7.33517 8.94622 8.20698C8.0744 9.07879 7.28513 9.99206 6.59895 10.9162C6.14489 10.1719 5.77162 9.43406 5.49253 8.72085ZM9.46016 19.2459C7.63889 19.9585 6.18925 19.9622 5.48277 19.2557C4.77629 18.5493 4.77986 17.0995 5.49253 15.2783C5.77162 14.5651 6.14489 13.8272 6.59895 13.083C7.28513 14.0072 8.0744 14.9205 8.94628 15.7923C9.81561 16.6617 10.7243 17.4481 11.6562 18.1392C10.9116 18.5933 10.1735 18.9668 9.46016 19.2459ZM15.6715 14.9323C14.7274 15.8764 13.7361 16.7166 12.7406 17.4233C11.7311 16.7078 10.7455 15.8715 9.80628 14.9323C8.86161 13.9876 8.02095 12.9957 7.31392 11.9996C8.02095 11.0035 8.86155 10.0116 9.80622 9.06697C10.7509 8.12231 11.7428 7.28165 12.7389 6.57463C13.7351 7.28165 14.727 8.12231 15.6717 9.06691C16.6158 10.011 17.456 11.0024 18.1627 11.9979C17.4471 13.0074 16.6109 13.993 15.6715 14.9323Z" fill="url(#paint3_linear_708_3334)"/>
<defs>
<linearGradient id="paint0_linear_708_3334" x1="10.1523" y1="11.9996" x2="15.3246" y2="11.9996" gradientUnits="userSpaceOnUse">
<stop stop-color="#FBBF61"/>
<stop offset="0.5" stop-color="#F89C1C"/>
<stop offset="1" stop-color="#E87C00" stop-opacity="0.8"/>
</linearGradient>
<linearGradient id="paint1_linear_708_3334" x1="19.2642" y1="10.5609" x2="20.4804" y2="10.5609" gradientUnits="userSpaceOnUse">
<stop stop-color="#FBBF61"/>
<stop offset="0.5" stop-color="#F89C1C"/>
<stop offset="1" stop-color="#E87C00" stop-opacity="0.8"/>
</linearGradient>
<linearGradient id="paint2_linear_708_3334" x1="13.5298" y1="19.2359" x2="14.746" y2="19.2359" gradientUnits="userSpaceOnUse">
<stop stop-color="#FBBF61"/>
<stop offset="0.5" stop-color="#F89C1C"/>
<stop offset="1" stop-color="#E87C00" stop-opacity="0.8"/>
</linearGradient>
<linearGradient id="paint3_linear_708_3334" x1="3.73926" y1="11.9999" x2="21.7393" y2="11.9999" gradientUnits="userSpaceOnUse">
<stop stop-color="#FBBF61"/>
<stop offset="0.5" stop-color="#F89C1C"/>
<stop offset="1" stop-color="#E87C00" stop-opacity="0.8"/>
</linearGradient>
</defs>
</svg>
