<svg width="43" height="42" viewBox="0 0 43 42" fill="none" xmlns="http://www.w3.org/2000/svg">
<path d="M37.25 24.9376V34.1251C37.25 34.8212 36.9734 35.4889 36.4812 35.9812C35.9889 36.4735 35.3212 36.7501 34.625 36.7501H8.375C7.67881 36.7501 7.01113 36.4735 6.51884 35.9812C6.02656 35.4889 5.75 34.8212 5.75 34.1251V24.9376C5.75 24.5895 5.88828 24.2556 6.13442 24.0095C6.38056 23.7633 6.7144 23.6251 7.0625 23.6251C7.4106 23.6251 7.74444 23.7633 7.99058 24.0095C8.23672 24.2556 8.375 24.5895 8.375 24.9376V34.1251H34.625V24.9376C34.625 24.5895 34.7633 24.2556 35.0094 24.0095C35.2556 23.7633 35.5894 23.6251 35.9375 23.6251C36.2856 23.6251 36.6194 23.7633 36.8656 24.0095C37.1117 24.2556 37.25 24.5895 37.25 24.9376ZM15.8661 14.0537L20.1875 9.7306V24.9376C20.1875 25.2857 20.3258 25.6195 20.5719 25.8656C20.8181 26.1118 21.1519 26.2501 21.5 26.2501C21.8481 26.2501 22.1819 26.1118 22.4281 25.8656C22.6742 25.6195 22.8125 25.2857 22.8125 24.9376V9.7306L27.1339 14.0537C27.3802 14.2999 27.7142 14.4383 28.0625 14.4383C28.4108 14.4383 28.7448 14.2999 28.9911 14.0537C29.2374 13.8074 29.3757 13.4733 29.3757 13.1251C29.3757 12.7768 29.2374 12.4427 28.9911 12.1965L22.4286 5.63396C22.3067 5.51193 22.1619 5.41512 22.0026 5.34907C21.8433 5.28302 21.6725 5.24902 21.5 5.24902C21.3275 5.24902 21.1567 5.28302 20.9974 5.34907C20.8381 5.41512 20.6933 5.51193 20.5714 5.63396L14.0089 12.1965C13.7626 12.4427 13.6243 12.7768 13.6243 13.1251C13.6243 13.4733 13.7626 13.8074 14.0089 14.0537C14.2552 14.2999 14.5892 14.4383 14.9375 14.4383C15.2858 14.4383 15.6198 14.2999 15.8661 14.0537Z" fill="#F89C1C"/>
</svg>
